# xmcd
#
# Track frame offsets: 
#        150
#        32976
#        81827
#        125084
#        159319
#        210004
#        244917
#
# Disc length: 3750 seconds
#
# Revision: 0
# Processed by: cddbd v1.5.2PL0 Copyright (c) Steve Scherf et al.
# Submitted via: ExactAudioCopy v0.99pb4
#
DISCID=540ea407
DTITLE=Various Artist - Fiesta dalmatina
DYEAR=1900
DGENRE=Dalmatinska
TTITLE0=Borno dance hit mix
TTITLE1=Dalmatinski mix 1
TTITLE2=Dalmatinski mix 2
TTITLE3=Veceras je nasa festa mix
TTITLE4=Mix za festu
TTITLE5=Mediteranski mix
TTITLE6=Konoba mix
EXTD=
EXTT0=
EXTT1=
EXTT2=
EXTT3=
EXTT4=
EXTT5=
EXTT6=
PLAYORDER=
